<svg xmlns="http://www.w3.org/2000/svg" viewBox="0 0 512 640" x="0px" y="0px"><title>snail-shell-slow-spiral-garden</title><g><path d="M159.753,160.859a132.3,132.3,0,0,0-37.282,12.733C132.917,192.244,162.61,184.064,159.753,160.859Z"/><path d="M362.237,160.02,340.254,94.072a39.727,39.727,0,0,1-9.8,1.846L349.238,164.8C354.479,164.368,358.161,162.475,362.237,160.02Z"/><path d="M351.7,52.217a24,24,0,0,0-47.4,0A69.128,69.128,0,0,1,351.7,52.217Z"/><path d="M348.638,68.231a52.807,52.807,0,0,0-41.276,0C316.03,83.144,339.005,84.449,348.638,68.231Z"/><path d="M248,204c.376,15.129,23.054,16.519,24,0C271.624,188.871,248.946,187.481,248,204Z"/><path d="M319.994,272.116l-.057-.349h0c-.346-2.007-.73-3.955-1.135-5.823-7.211-17.305-34.956-10.326-30.229,10.3C293.349,293.022,319.012,291.652,319.994,272.116Z"/><path d="M453.548,95.918a39.727,39.727,0,0,1-9.8-1.846L421.763,160.02c4.405,2.783,8.743,4.49,13,4.775Z"/><path d="M479.7,52.217a24,24,0,0,0-47.4,0A69.128,69.128,0,0,1,479.7,52.217Z"/><path d="M265.161,334.614c-.069.076-.14.151-.213.224-33.573,35.826-35.408,99.575-131.591,90.526-9.46-.186-19.216.773-26.892,6.423,24.52-4.7,48.194,3.545,74.132,2.641,88.11-.7,39.674-63.51,111.063-110.982a79.686,79.686,0,0,1,8.3-4.546C286.69,317.889,274.268,324.8,265.161,334.614Z"/><path d="M323.2,297.582a31.826,31.826,0,0,1-15.832,6.24,42.9,42.9,0,0,1,12.99,4.867C322.231,305.626,322.952,301.659,323.2,297.582Z"/><path d="M420.056,177.268a132.389,132.389,0,0,1-18.362-11.1c-6.854-5.579-9.075-9.165-16.272-2.616-9.665,7.548-16.862,12.518-28.071,16.067-12.182,3.805-34.675-3.9-32.144,16.749-1.8,23.305,46.264,72.5,71.189,67.336,18.608-2.962,70.137-43.856,61.559-76.216C452.723,177.118,432.439,184.322,420.056,177.268Zm-20.508,69.737c-12.9,3.154-25.818-2.566-37.049-10.458-8.206-5.089-42.06-38.689-18.935-44.537,8.142,1.843,14,7.383,24.77,7.486,20.9.758,30.559,1.688,52.592-.727,9.157-.08,14.949-8.954,22.691-5.905C461.635,204.9,419.654,244.434,399.548,247.005Z"/><path d="M406.992,277.5A45.968,45.968,0,0,1,392,280c-9.862.2-19.778-3.669-28.028-8.794,8.065,51.238,7.44,68.259-31.834,109.228-23.907,28.219-47.054,70.666-80.4,87.505-45.927,26.805-108.344-2.121-157.849,12.372,49.608-.635,234.647,10.5,280.841,2.427,14.3-2.592,33.6-8.3,49.548-20.821C477.859,397.85,393.938,371.741,406.992,277.5Z"/><path d="M362.172,214.828c7.426,8.184,19.259,16.52,29.828,17.166,8.739-.406,19.833-7.141,26.344-13.651,1.129-1.13,2.31-2.311,3.484-3.515C397.51,216.889,386.192,216.912,362.172,214.828Z"/><path d="M426.955,266.491c-13.937,31.027-.381,70.728,17.151,106.171-5.417-36.7-4.726-77.85,2.071-122.924A204.608,204.608,0,0,1,426.955,266.491Z"/><path d="M435.362,68.231a23.98,23.98,0,0,0,41.276,0A52.807,52.807,0,0,0,435.362,68.231Z"/><path d="M289.316,410.44c16.216-24.667,36.778-45.484,54.435-69.187,14.669-21.713,6.017-56.361,1.5-84.562-3.1-2.812-6.087-5.661-8.944-8.412.511,19.156,11.926,60.265-9.919,77.2a34.088,34.088,0,0,1-6.4,4,8,8,0,0,1-1.81.45h0c-5.548.707-11.5,3.022-17.707,6.882-67.39,41.236-10.331,124.741-147.37,112.219-15.14-1.629-32.024-4.53-44.752-1.248C94.807,453.675,83,464.622,69.3,470.667a52.788,52.788,0,0,1-6.759,2.487c8.144-1.575,15.631-4.606,23.664-7.2C166.708,441.53,223.454,504.16,289.316,410.44Z"/><path d="M98.338,417.977c42.275-27.79,84.685,29.025,135.441-67.035-19.932,6.543-41.753,6.019-60.692-1.675-28.664,50.31-93.937-11.691-42.126-42.463-17.017-45.83,20.478-94.867,70.263-80.495,36.875,11.6,45.5,64.838,3.317,75.649-16.144,3.173-34.02-11.228-34.078-28.637-.1-6.708,2.5-16.36,11.16-14.312,8.886,2.794,4.217,9.159,5.238,16.836,3.918,11.868,18.4,14.851,26.574,2.218,11.479-17.808-8.667-38.613-26.876-38.3-35.309-.39-54.444,35.678-37.5,68.6,20.579,36.74,71.136,39.716,105.017,14.714,11.345-11.822,25.778-19.8,41.507-20.206-38.413-11.607-26.924-69.051,15.2-62.138A140.367,140.367,0,0,0,288,204.028c0,23.739-28.7,37.39-47.051,20.473-16.131-14.85-9.475-43.338,13.747-47.99a140.4,140.4,0,0,0-79.072-17.661c4.8,38.655-45.44,57.644-66.854,23.021-27.853,19.221-48.4,48.994-56.827,82.325,45.368,5.51,49.454,69.662,2.632,79.254a261.052,261.052,0,0,0,11.075,31.267C72.317,390.748,82.185,409.4,98.338,417.977ZM116,200c36.035,1.109,38.211,53.9,0,56C79.965,254.891,77.789,202.1,116,200Z"/><path d="M48.885,280.022c-2.083,16.224-1.178,31.4,1.973,47.8C78.959,323.879,79.446,282.605,48.885,280.022Z"/><path d="M116,240c15.129-.376,16.519-23.054,0-24C100.871,216.376,99.481,239.054,116,240Z"/><path d="M138.035,321.17c-26.376,13.485,5.325,48.375,20.847,20.672A72.391,72.391,0,0,1,138.035,321.17Z"/></g><text x="0" y="527" fill="#000000" font-size="5px" font-weight="bold" font-family="'Helvetica Neue', Helvetica, Arial-Unicode, Arial, Sans-serif">Created by Chaowalit  Koetchuea</text><text x="0" y="532" fill="#000000" font-size="5px" font-weight="bold" font-family="'Helvetica Neue', Helvetica, Arial-Unicode, Arial, Sans-serif">from the Noun Project</text></svg>