<svg xmlns:cc="http://creativecommons.org/ns#" xmlns:dc="http://purl.org/dc/elements/1.1/" xmlns:inkscape="http://www.inkscape.org/namespaces/inkscape" xmlns:rdf="http://www.w3.org/1999/02/22-rdf-syntax-ns#" xmlns:sodipodi="http://sodipodi.sourceforge.net/DTD/sodipodi-0.dtd" xmlns:svg="http://www.w3.org/2000/svg" xmlns="http://www.w3.org/2000/svg" xmlns:xlink="http://www.w3.org/1999/xlink" version="1.0" x="0px" y="0px" viewBox="0 0 48 60" style="enable-background:new 0 0 48 48;" xml:space="preserve"><g transform="translate(0,4.2333)"><path d="M11.7-2.2c-0.8,0-1.5,0.5-2,1.1C9.3-0.5,9,0.2,9,1.1v2.6v1.7L8,37c0,0.4,0.2,0.7,0.5,0.9   c0,0,6.4,3.5,16.5,3.7c10.1,0.2,16.5-3.7,16.5-3.7c0.3-0.2,0.5-0.5,0.5-0.9l-0.5-15.1c1.3-0.1,2.3-0.8,3.1-1.8   c0.8-1,1.4-2.4,1.4-3.8V8.2c0-1.3-0.3-2.4-0.9-3.2c-0.7-0.8-1.7-1.3-2.9-1.3h-1.5V1.1c0-0.8-0.2-1.6-0.7-2.2s-1.2-1.1-2-1.1H11.7z    M11.7-0.2h4.7v3.9H11V1.1c0-0.4,0.1-0.8,0.3-1C11.5-0.2,11.6-0.2,11.7-0.2z M17.4-0.2h7.1v3.9h-7.1V-0.2z M25.5-0.2h6.9v3.9h-6.9   V-0.2z M33.4-0.2H38c0.2,0,0.3,0,0.4,0.3c0.1,0.2,0.3,0.6,0.3,1v2.6h-5.3V-0.2z M11,5.7h27.7H39l0.8,25.8h-8.4l-2.3-3.1   c-0.2-0.3-0.5-0.4-0.8-0.4H28h-7c-0.3,0-0.6,0.2-0.8,0.4l-2.3,3.1h-7.7L11,5.8h0V5.7z M41,5.7h1.2c0.7,0,1,0.2,1.3,0.5   c0.3,0.3,0.5,1,0.5,2v5.9L41.3,16L41,5.7z M14.3,7.7c-0.7,0-1.2,0.4-1.6,0.9c-0.4,0.5-0.6,1.2-0.6,1.9s0.2,1.4,0.6,1.9   c0.4,0.5,1,0.9,1.6,0.9s1.2-0.4,1.6-0.9c0.4-0.5,0.6-1.2,0.6-1.9S16.4,9.1,16,8.6C15.6,8.1,15,7.7,14.3,7.7z M21.3,7.7   c-0.7,0-1.2,0.4-1.6,0.9c-0.4,0.5-0.6,1.2-0.6,1.9s0.2,1.4,0.6,1.9c0.4,0.5,1,0.9,1.6,0.9s1.2-0.4,1.6-0.9c0.4-0.5,0.6-1.2,0.6-1.9   S23.3,9.1,23,8.6C22.6,8.1,22,7.7,21.3,7.7z M28.3,7.7c-0.7,0-1.2,0.4-1.6,0.9c-0.4,0.5-0.6,1.2-0.6,1.9s0.2,1.4,0.6,1.9   c0.4,0.5,1,0.9,1.6,0.9s1.2-0.4,1.6-0.9c0.4-0.5,0.6-1.2,0.6-1.9s-0.2-1.4-0.6-1.9C29.5,8.1,29,7.7,28.3,7.7z M35.3,7.7   c-0.7,0-1.2,0.4-1.6,0.9C33.3,9.1,33,9.8,33,10.5s0.2,1.4,0.6,1.9c0.4,0.5,1,0.9,1.6,0.9c0.7,0,1.2-0.4,1.6-0.9   c0.4-0.5,0.6-1.2,0.6-1.9s-0.2-1.4-0.6-1.9C36.5,8.1,35.9,7.7,35.3,7.7z M14.3,8.7c0.3,0,0.6,0.2,0.8,0.5c0.2,0.3,0.4,0.8,0.4,1.3   s-0.2,1-0.4,1.3c-0.2,0.3-0.5,0.5-0.8,0.5s-0.6-0.2-0.8-0.5c-0.2-0.3-0.4-0.8-0.4-1.3s0.2-1,0.4-1.3C13.7,8.9,14,8.7,14.3,8.7z    M21.3,8.7c0.3,0,0.6,0.2,0.8,0.5c0.2,0.3,0.4,0.8,0.4,1.3s-0.2,1-0.4,1.3c-0.2,0.3-0.5,0.5-0.8,0.5c-0.3,0-0.6-0.2-0.8-0.5   c-0.2-0.3-0.4-0.8-0.4-1.3s0.2-1,0.4-1.3C20.7,8.9,21,8.7,21.3,8.7z M28.3,8.7c0.3,0,0.6,0.2,0.8,0.5c0.2,0.3,0.4,0.8,0.4,1.3   s-0.2,1-0.4,1.3c-0.2,0.3-0.5,0.5-0.8,0.5c-0.3,0-0.6-0.2-0.8-0.5c-0.2-0.3-0.4-0.8-0.4-1.3s0.2-1,0.4-1.3   C27.7,8.9,28,8.7,28.3,8.7z M35.3,8.7c0.3,0,0.6,0.2,0.8,0.5c0.2,0.3,0.4,0.8,0.4,1.3s-0.2,1-0.4,1.3c-0.2,0.3-0.5,0.5-0.8,0.5   c-0.3,0-0.6-0.2-0.8-0.5c-0.2-0.3-0.4-0.8-0.4-1.3s0.2-1,0.4-1.3C34.7,8.9,35,8.7,35.3,8.7z M24.8,14.9c-1.2,0-2.2,0.7-2.9,1.7   c-0.7,1-1.1,2.4-1.1,4c0,1.5,0.4,2.9,1.1,4c0.7,1,1.7,1.7,2.9,1.7s2.2-0.7,2.9-1.7c0.7-1,1.1-2.4,1.1-4c0-1.5-0.4-2.9-1.1-4   C27,15.6,26,14.9,24.8,14.9z M44,15.3v1c0,0.9-0.4,1.8-0.9,2.5c-0.5,0.6-1.1,1-1.6,1l-0.1-2.7L44,15.3z M24.8,15.9   c0.8,0,1.5,0.5,2.1,1.3c0.6,0.8,0.9,2.1,0.9,3.4c0,1.3-0.4,2.6-0.9,3.4c-0.6,0.8-1.3,1.3-2.1,1.3c-0.8,0-1.5-0.5-2.1-1.3   c-0.6-0.8-0.9-2.1-0.9-3.4c0-1.3,0.4-2.6,0.9-3.4C23.3,16.4,24,15.9,24.8,15.9z M21.5,30h6.3l2.3,3.1c0.1,0.1,0.2,0.2,0.4,0.3v5.9   c-1.6,0.2-3.5,0.3-5.5,0.3c-2.4,0-4.5-0.3-6.3-0.6v-5.6c0.2-0.1,0.4-0.2,0.5-0.4L21.5,30z M10.1,33.5h7.6v5.3   c-4.5-0.9-7.2-2.2-7.7-2.5L10.1,33.5z M31.5,33.5h8.4l0.1,2.9c-0.5,0.3-3.5,2-8.5,2.8V33.5z"/></g><text x="0" y="63" fill="#000000" font-size="5px" font-weight="bold" font-family="'Helvetica Neue', Helvetica, Arial-Unicode, Arial, Sans-serif">Created by M Ristiyanto</text><text x="0" y="68" fill="#000000" font-size="5px" font-weight="bold" font-family="'Helvetica Neue', Helvetica, Arial-Unicode, Arial, Sans-serif">from the Noun Project</text></svg>