<svg xmlns="http://www.w3.org/2000/svg" xmlns:xlink="http://www.w3.org/1999/xlink" version="1.1" x="0px" y="0px" viewBox="0 0 100 125" enable-background="new 0 0 100 100" xml:space="preserve"><g><path fill="#000000" d="M90.458,54.965l-0.031-0.129l-0.074-0.109c-1.332-2-3.259-3.176-5.647-3.474   c0.12-1.812-0.253-3.2-1.111-4.125c-0.233-0.252-0.481-0.443-0.729-0.593c0.893-0.834,1.463-1.821,1.7-2.95   c0.613-2.92-1.272-5.683-1.354-5.798l-1.554-2.239l0.156,2.721c0.066,1.135-0.107,1.954-0.5,2.371   c-0.227,0.24-0.535,0.356-0.945,0.356c-0.355,0-0.642-0.093-0.642-0.093l-0.047-0.016c-2.954-0.824-3.175-4.697-3.176-4.734   L76.5,36.124c-0.264-3.23-1.614-4.756-1.672-4.821l-0.031-0.031c-1.195-1.178-2.438-1.774-3.691-1.774   c-0.484,0-0.969,0.092-1.439,0.272c0.005-3.47-0.944-9.696-6.883-14.872c-0.375-0.395-3.386-3.399-8.705-3.399   c-1.375,0-2.801,0.203-4.239,0.61c-0.093,0.012-0.353,0.042-0.708,0.042c-1.477,0-3.371-0.46-4.014-2.646L44.288,6.67l-0.655,2.88   c-0.027,0.121-0.577,2.624,0.434,4.699c-0.355,0.199-0.738,0.501-1.115,0.955l-0.057,0.067l-0.037,0.078   c-0.011,0.019-0.975,1.878-2.423,1.878c-0.311,0-0.638-0.086-0.975-0.259l-0.062-0.03l-0.061-0.019   c-0.195-0.064-1.908-0.688-1.443-3.01l0.329-1.645l-1.461,0.826c-0.31,0.176-3.034,1.781-3.102,4.041   c-0.017,0.528,0.11,1.031,0.378,1.508c-1.159,0.069-2.656,0.509-3.815,2.062c-0.272,0.273-1.231,1.39-1.763,3.768   c-0.137,0.296-0.864,1.721-2.33,1.721c-0.868,0-1.878-0.477-3.003-1.415l-0.912-0.762l-0.319,1.143   c-0.025,0.091-0.55,2.048,0.673,3.873c-1.331,1.609-4.241,4.592-6.373,4.592c-0.498,0-1.237-0.14-1.903-1.343l-1.398,0.618   c0.553,1.633,2.55,4.687,6.197,4.837c-0.051,0.772,0.036,1.874,0.686,2.896c0.14,0.217,0.079,0.555,0.002,0.797   c-0.38,1.227-1.902,2.77-2.655,3.087l-0.081,0.033l-0.07,0.054c-0.066,0.047-0.405,0.238-0.702,0.241   c-0.115,0-0.422-0.003-0.695-0.671l-1.458,0.465c0.22,0.938,1.086,2.655,2.84,2.878c-0.212,0.592-0.355,1.323-0.225,2.086   c0.078,0.453,0.246,0.87,0.493,1.252c-3.293-0.197-5.903,1.014-7.579,3.528L9.574,54.49l-0.032,0.129   c-0.064,0.25-1.507,6.137,1.909,10.66c2.331,3.086,6.312,4.73,11.831,4.885l0.04-1.398c0.294,0.215,0.782,0.668,0.509,1.174   l-0.044,0.096c-0.036,0.096-0.847,2.312,0.102,4.18c0.519,1.021,1.439,1.725,2.736,2.088l2.262,0.633l-1.452-1.848   c-0.008-0.008-0.762-0.986-0.226-1.809c0.257-0.182,0.872-0.646,1.519-1.328l1.018,2.896l8.008,3.9   c-1.17,2.877-1.156,5.289,0.053,7.178c1.74,2.713,5.447,3.504,7.301,3.732c-0.446,0.77-0.906,1.613-1.385,2.541l-0.56,1.084   l1.22,0.037c0.018,0,0.417,0.01,1.067,0.01l0,0c1.275,0,3.741-0.045,5.935-0.354c2.989-0.418,4.549-1.178,4.906-2.383   c0.108-0.369,0.095-0.729-0.011-1.072c1.962-0.311,5.164-1.188,6.743-3.652c1.226-1.916,1.226-4.369,0.004-7.297l7.647-3.725   l0.532-1.512c0.472,0.506,0.879,0.855,1.055,1.002c0.55,0.805-0.174,1.779-0.215,1.832l-1.449,1.844l2.263-0.635   c1.296-0.363,2.217-1.066,2.736-2.09c0.948-1.863,0.137-4.084,0.103-4.178l-0.044-0.096c-0.364-0.674,0.602-1.246,0.708-1.307   l0.055-0.031l0.049-0.039c0.077-0.061,0.15-0.119,0.221-0.18l0.029,1.049c5.521-0.154,9.502-1.799,11.833-4.885   C91.966,61.102,90.522,55.215,90.458,54.965z M12.698,64.352c-2.717-3.588-1.854-8.396-1.678-9.225   c1.464-2.113,3.714-3.012,6.689-2.672c0.896,0.102,1.733,0.305,2.428,0.518c0.04,0.984,0.642,1.863,1.363,2.805   c1.428,1.861-0.148,4.352-0.884,5.051l-1.113,1.055l1.602,0.275c0.492,0.08,0.816,0.135,1.091,0.824l0.006,0.033l0.035,0.053   c0.037,0.082,0.261,0.646-0.196,1.473c-0.202,0.221-0.595,0.754-0.574,1.531c0.025,0.863,0.547,1.703,1.552,2.492l0.045,0.035   C18.185,68.416,14.696,66.988,12.698,64.352z M26.238,72.086l-0.104,0.07l-0.078,0.098c-0.408,0.527-0.564,1.09-0.572,1.623   c-0.085-0.109-0.159-0.227-0.223-0.352c-0.591-1.154-0.134-2.66-0.05-2.914c0.791-1.553-0.458-2.807-1.289-3.289   c-0.574-0.461-0.9-0.912-0.92-1.275c-0.014-0.256,0.134-0.43,0.17-0.469l0.074-0.057l0.071-0.123   c0.783-1.32,0.56-2.498,0.287-3.029c-0.304-0.736-0.729-1.146-1.15-1.381c1.012-1.516,1.872-4.049,0.263-6.146   c-0.378-0.492-0.64-0.877-0.807-1.195c0.094,0.043,0.146,0.068,0.148,0.07l0.707-1.384c-0.045-0.023-0.63-0.317-1.549-0.641   l-1.955-0.94c-0.586-0.395-0.918-0.854-1.014-1.403c-0.197-1.122,0.644-2.271,0.65-2.281l1.479-1.959l-2.331,0.768   c-0.127,0.043-0.251,0.072-0.369,0.093c0.049-0.027,0.089-0.05,0.121-0.072c1.184-0.548,2.954-2.416,3.45-4.013   c0.313-1.001,0.079-1.684-0.172-2.078c-0.757-1.188-0.349-2.63-0.346-2.639l0.331-1.094l-1.136,0.106   c-0.185,0.017-0.37,0.025-0.548,0.025c-1.295,0-2.296-0.456-3.05-1.048c3.501-0.12,7.393-5.08,7.831-5.651l0.385-0.502l-0.42-0.475   c-0.504-0.568-0.716-1.186-0.79-1.711c0.978,0.604,1.916,0.908,2.8,0.908c2.648,0,3.731-2.622,3.777-2.733l0.022-0.061l0.014-0.062   c0.48-2.206,1.379-3.098,1.382-3.1l0.055-0.051l0.043-0.06c0.725-0.99,1.718-1.492,2.955-1.492c0.859,0,1.52,0.25,1.521,0.252   l0.699-1.36c-0.949-0.615-1.422-1.247-1.404-1.879c0.02-0.67,0.551-1.341,1.127-1.866c0.259,1.809,1.607,2.755,2.497,3.051   c0.536,0.265,1.079,0.398,1.615,0.398c2.179,0,3.483-2.156,3.747-2.635c0.368-0.425,0.757-0.669,1.127-0.708l1.406-0.147   l-0.889-1.099c-0.448-0.554-0.669-1.242-0.766-1.904c0.996,0.919,2.391,1.416,4.07,1.416c0.57,0,0.953-0.062,0.995-0.069   l0.085-0.019c1.316-0.375,2.618-0.564,3.867-0.564c4.863,0,7.573,2.902,7.599,2.931l0.067,0.064   c6.374,5.536,6.553,12.357,6.335,15.036l-0.146,1.771l1.389-1.109c0.575-0.462,1.176-0.694,1.783-0.694   c0.828,0,1.7,0.439,2.591,1.309c0.114,0.142,1.063,1.384,1.274,3.896c0.02,0.372,0.34,5.011,4.276,6.123   c0.123,0.04,0.566,0.172,1.121,0.172c0.832,0,1.544-0.29,2.062-0.838c0.208-0.22,0.381-0.479,0.521-0.774   c0.19,0.719,0.283,1.542,0.11,2.356c-0.243,1.152-0.996,2.121-2.234,2.883l-2.393,1.462l2.795-0.043   c0.029,0,0.711,0.018,1.248,0.604c0.489,0.532,0.731,1.409,0.713,2.555l-1.535,0.58c-2.443,0.362-4.337,1.317-4.42,1.362   l0.573,1.123c0.146,0.752-0.145,1.387-0.903,1.979c-1.181,0.92-1.406,1.895-1.388,2.551c0.029,1.039,0.66,1.902,1.218,2.467   c-0.359,0.439-0.657,1.021-0.857,1.582l-4.028,1.234c-0.001,0-0.057,0.014-0.14,0.014c-0.259,0-0.379-0.113-0.447-0.199   c-0.11-0.133-0.29-0.48-0.279-1.277c0.226,0.129,0.485,0.207,0.787,0.207c0.318,0,0.636-0.092,0.946-0.277   c0.583-0.307,1.438-1.295,0.763-3.002c-0.527-1.855-1.093-4.816-0.72-5.674l0.04-0.094l0.016-0.102   c0.002-0.012,0.213-1.231,1.347-1.648l-0.456-1.464c-0.004,0.002-0.33,0.082-0.789,0.082c-1.311,0-2.221-0.602-2.713-1.79   c0.895-0.425,1.749-1.362,1.634-2.944c0.011-0.527-0.019-4.614-3.331-9.794c-1.887-3.208-2.757-3.208-3.043-3.208   c-0.157,0-0.953,0.057-1.071,1.168l-0.017,0.144l0.039,0.142c0.024,0.094,0.089,0.308,0.196,0.555   c-0.984-0.07-2.302-0.495-3.486-1.978c-0.007-0.01-0.726-0.933-1.233-2.205l-0.559-1.396l-0.805,1.271   c-0.979,1.55-2.252,2.304-3.887,2.304c-0.701,0-1.48-0.144-2.311-0.426l-0.779-0.266l-0.21,0.796   c-0.993,3.766-3.966,5.674-8.833,5.674c-0.641,0-1.322-0.034-2.027-0.1c-1.043-0.257-3.044-1.017-3.666-1.947   c1.16-0.324,3.254-1.085,4.289-2.545l0.916-1.293l-1.581,0.081c-3.663,0.188-6.575,1.455-8.657,3.768   c-3.682,4.088-3.41,9.934-3.398,10.181l0.02,0.345l0.27,0.213c0.203,0.164,0.414,0.287,0.613,0.38   c-0.492,1.193-1.404,1.795-2.716,1.795c-0.458,0-0.785-0.081-0.785-0.081l-0.459,1.464c1.129,0.411,1.338,1.604,1.345,1.647   l0.016,0.102l0.04,0.093c0.374,0.855-0.191,3.818-0.718,5.676c-0.677,1.707,0.179,2.693,0.761,3   c0.312,0.186,0.63,0.281,0.947,0.281c0.306,0,0.573-0.084,0.803-0.217c0.035,0.926-0.163,1.312-0.28,1.461   c-0.033,0.041-0.139,0.174-0.361,0.174c-0.02,0-0.035-0.004-0.044-0.004l-2.734-0.777l2.031,2.068   c1.145,1.164,1.788,2.525,1.87,2.707C29.992,69.531,26.275,72.061,26.238,72.086z M39.101,85.098   c-0.911-1.424-0.897-3.334,0.036-5.676l10.168,4.951c-1.01,0.682-2.104,1.945-3.31,3.826C44.932,88.127,40.75,87.67,39.101,85.098z    M52.245,86.893c-1.978,1.004-4.021,2.189-5.562,3.113c2.496-4.184,3.839-4.705,4.348-4.705   C51.642,85.301,52.043,86.217,52.245,86.893z M54.818,90.156c-0.183,0.613-2.502,1.508-8.092,1.625   c1.582-0.967,4.019-2.406,6.305-3.566c0.883,0.604,1.36,1.078,1.598,1.414l0.001,0.064c0.008,0,0.022,0,0.042,0   C54.812,89.91,54.845,90.066,54.818,90.156z M61.732,85.037c-1.448,2.266-4.88,2.893-6.398,3.059   c-0.227-0.225-0.476-0.439-0.732-0.641c0.986-0.447,1.892-0.803,2.624-0.99l-0.382-1.488c-0.896,0.23-2.008,0.676-3.198,1.232   c-0.304-0.891-0.845-1.836-1.7-2.24l9.7-4.723C62.625,81.641,62.658,83.588,61.732,85.037z M69.592,73.764l-19.381,9.438   l-19.382-9.438l-1.085-3.092c0.797-1.225,1.316-2.791,0.691-4.523l-0.018-0.043c-0.025-0.057-0.481-1.098-1.369-2.244   c0.143-0.105,0.273-0.23,0.389-0.373c0.704-0.877,0.808-2.371,0.32-4.566l-0.659-2.961l-0.829,2.918   c-0.113,0.398-0.414,0.869-0.554,0.869c-0.028,0-0.088-0.02-0.171-0.068l-0.001-0.014l-0.053-0.02   c-0.191-0.127-0.298-0.48-0.043-1.104l0.026-0.082c0.234-0.818,1.35-4.928,0.698-6.656c-0.046-0.218-0.18-0.732-0.517-1.278   c1.673-0.366,2.866-1.608,3.343-3.53l0.208-0.843l-0.86-0.104c-0.002,0-0.202-0.032-0.433-0.144c0.01-1.3,0.255-5.628,3.01-8.688   c0.631-0.702,1.354-1.291,2.167-1.768v0.171c0,2.725,4.566,3.886,5.087,4.011l0.104,0.017c0.773,0.074,1.522,0.113,2.229,0.113   c6.475,0,9.072-3.137,10.086-6.059c0.715,0.186,1.401,0.281,2.047,0.281c1.721,0,3.214-0.675,4.383-1.958   c0.452,0.833,0.87,1.365,0.896,1.399c1.699,2.126,3.657,2.572,5,2.572c0.949,0,1.592-0.224,1.661-0.25l-0.149-0.482   c0.254,0.363,0.518,0.77,0.756,1.177l0.018,0.026c3.202,5.003,3.098,8.926,3.095,8.963l-0.002,0.049l0.005,0.046   c0.11,1.313-0.866,1.556-1.16,1.599l-0.861,0.104l0.207,0.845c0.475,1.922,1.669,3.162,3.342,3.529   c-0.335,0.544-0.47,1.061-0.516,1.279c-0.652,1.729,0.465,5.838,0.697,6.656l0.028,0.078c0.251,0.619,0.147,0.971-0.037,1.104   l-0.062,0.033c-0.083,0.055-0.144,0.068-0.171,0.068c-0.128,0-0.425-0.43-0.553-0.865l-0.831-2.92L69.728,60   c-0.464,2.094-0.354,3.529,0.335,4.393c0.114,0.141,0.243,0.264,0.383,0.367c-0.89,1.01-1.255,2.006-1.274,2.062   c-0.716,1.984,0.054,3.859,1.014,5.25L69.592,73.764z M75.562,68.398c-0.828,0.484-2.078,1.736-1.288,3.287   c0.087,0.262,0.54,1.766-0.049,2.916c-0.063,0.123-0.139,0.242-0.225,0.352c-0.007-0.533-0.163-1.094-0.571-1.623l-0.059-0.072   l-0.074-0.059c-0.036-0.029-3.721-2.969-2.681-5.855c0.006-0.014,0.535-1.426,1.855-2.352l3.306-2.297   c-0.086,0.289-0.143,0.564-0.162,0.799c-0.083,0.365-0.269,1.594,0.554,2.982l0.062,0.105l0.089,0.078   c0.003,0.002,0.172,0.178,0.165,0.445C76.474,67.473,76.146,67.93,75.562,68.398z M87.302,64.699   c-1.958,2.582-5.348,4.002-10.075,4.232c0.509-0.576,0.775-1.172,0.791-1.781c0.023-0.781-0.371-1.312-0.573-1.531   c-0.547-0.979-0.341-1.758-0.334-1.781l0.027-0.09l0.006-0.098c0.034-0.725,0.581-1.719,0.888-2.018l3.227,0.559l-2.851-1.979   c-0.64-0.443-1.336-1.236-1.355-1.924c-0.013-0.445,0.248-0.867,0.798-1.299c1.112-0.867,1.635-1.973,1.513-3.168l2.567-0.969   c2.349-0.336,5.208-0.035,7.049,2.619C89.156,56.305,90.018,61.109,87.302,64.699z"/><circle fill="#000000" cx="38.801" cy="53.895" r="2.617"/><circle fill="#000000" cx="60.203" cy="53.895" r="2.617"/><path fill="#000000" d="M50,57.211c-1.646,0-2.985,1.066-2.985,2.377s1.339,2.377,2.985,2.377s2.986-1.066,2.986-2.377   S51.646,57.211,50,57.211z M50,60.941c-1.064,0-1.963-0.619-1.963-1.354c0-0.732,0.898-1.352,1.963-1.352s1.963,0.619,1.963,1.352   C51.963,60.322,51.064,60.941,50,60.941z"/></g><text x="0" y="115" fill="#000000" font-size="5px" font-weight="bold" font-family="'Helvetica Neue', Helvetica, Arial-Unicode, Arial, Sans-serif">Created by Rodrigo Vidinich</text><text x="0" y="120" fill="#000000" font-size="5px" font-weight="bold" font-family="'Helvetica Neue', Helvetica, Arial-Unicode, Arial, Sans-serif">from the Noun Project</text></svg>