<svg xmlns="http://www.w3.org/2000/svg" viewBox="0 0 60 75" x="0px" y="0px"><defs><style>.cls-1{fill:none;stroke:#000;stroke-linecap:round;stroke-linejoin:round;stroke-width:2px;}</style></defs><title>Movies - Outline - 090 - Pans Labyrinth</title><path class="cls-1" d="M37.20475,17.646l-1.39405,4.80173L34.13783,28.2098A10,10,0,0,0,53.34476,33.786l3.06691-10.56381"/><path class="cls-1" d="M56.41167,23.22219,58.921,14.57907a2.00588,2.00588,0,0,0-1.36307-2.47831,2.01456,2.01456,0,0,0-2.47831,1.36307L52.57028,22.107"/><path class="cls-1" d="M44.85654,27.15651c-.12392-3.15985-4.64684-5.51425-4.64684-5.51425l.83643-2.881,1.11524-3.84138a2.00588,2.00588,0,0,0-1.36307-2.47831l-1.92069-.55762L37.20475,17.646l-1.39405,4.80173"/><path class="cls-1" d="M52.57028,22.107l2.50929-8.64312,1.11524-3.84138a2.00588,2.00588,0,0,0-1.36307-2.47831,2.01456,2.01456,0,0,0-2.47831,1.36307L48.7289,20.99171"/><path class="cls-1" d="M41.04613,18.76123l1.11524-3.84138,2.23048-7.68277A2.01456,2.01456,0,0,1,46.87017,5.874a2.00588,2.00588,0,0,1,1.36307,2.47831L44.88752,19.87647"/><path class="cls-1" d="M44.88752,19.87647,48.23324,8.35231l.83643-2.881A2.01456,2.01456,0,0,1,51.548,4.1082a2.00588,2.00588,0,0,1,1.36307,2.47831l-.55762,1.92069L48.7289,20.99171"/><path class="cls-1" d="M46.88565,34.514s-2.41687,1.90156-4.53841,1.28562-3.14436-3.51611-3.14436-3.51611S41.61976,30.382,43.7413,30.9979,46.88565,34.514,46.88565,34.514Z"/><path class="cls-1" d="M3.58833,23.22219,6.65524,33.786a10,10,0,0,0,19.20692-5.5762l-1.67286-5.76208L22.79525,17.646"/><path class="cls-1" d="M7.42972,22.107,4.92042,13.46383a1.95529,1.95529,0,0,0-.95973-1.18959,1.95529,1.95529,0,0,0-1.51859-.17348A2.00588,2.00588,0,0,0,1.079,14.57907l2.50929,8.64312"/><path class="cls-1" d="M24.18931,22.44772,22.79525,17.646l-1.67286-5.76208-1.92069.55762a2.00588,2.00588,0,0,0-1.36307,2.47831l1.11524,3.84138.83643,2.881s-4.52292,2.3544-4.64684,5.51425"/><path class="cls-1" d="M11.2711,20.99171,7.64657,8.50721A2.01456,2.01456,0,0,0,5.16825,7.14414,2.00588,2.00588,0,0,0,3.80518,9.62245l1.11524,3.84138L7.42972,22.107"/><path class="cls-1" d="M15.11248,19.87647,11.76676,8.35231A2.00588,2.00588,0,0,1,13.12983,5.874a2.01456,2.01456,0,0,1,2.47831,1.36307l2.23048,7.68277,1.11524,3.84138"/><path class="cls-1" d="M11.2711,20.99171,7.64657,8.50721,7.08895,6.58652A2.00588,2.00588,0,0,1,8.452,4.1082a2.01456,2.01456,0,0,1,2.47831,1.36307l.83643,2.881,3.34572,11.52415"/><path class="cls-1" d="M13.11435,34.514s2.41687,1.90156,4.53841,1.28562,3.14436-3.51611,3.14436-3.51611S18.38024,30.382,16.2587,30.9979,13.11435,34.514,13.11435,34.514Z"/><path class="cls-1" d="M24,37.32V59H12a2,2,0,0,1-2-2V38.79"/><path class="cls-1" d="M50,38.79V57a2,2,0,0,1-2,2H36V37.32"/><path class="cls-1" d="M43.55,10.12C40.45,4.58,35.53,1,30,1S19.55,4.58,16.45,10.12"/><path class="cls-1" d="M24,46.04a10.16367,10.16367,0,0,0,12,0"/><path class="cls-1" d="M26,16a3.0971,3.0971,0,0,1,2,1"/><path class="cls-1" d="M34,16a3.0971,3.0971,0,0,0-2,1"/><path class="cls-1" d="M33.75,30.74A7.46359,7.46359,0,0,1,30,32a7.46359,7.46359,0,0,1-3.75-1.26"/><path class="cls-1" d="M34.75,35.35a36.16076,36.16076,0,0,0-4.08033,2.8035,1.01286,1.01286,0,0,1-1.33935,0A36.16076,36.16076,0,0,0,25.25,35.35"/><line class="cls-1" x1="30" y1="48" x2="30" y2="55"/><line class="cls-1" x1="22" y1="59" x2="38" y2="59"/><text x="0" y="75" fill="#000000" font-size="5px" font-weight="bold" font-family="'Helvetica Neue', Helvetica, Arial-Unicode, Arial, Sans-serif">Created by Ben Davis</text><text x="0" y="80" fill="#000000" font-size="5px" font-weight="bold" font-family="'Helvetica Neue', Helvetica, Arial-Unicode, Arial, Sans-serif">from the Noun Project</text></svg>