<svg xmlns="http://www.w3.org/2000/svg" xmlns:xlink="http://www.w3.org/1999/xlink" version="1.1" x="0px" y="0px" viewBox="0 0 100 125" enable-background="new 0 0 100 100" xml:space="preserve"><path d="M49.776,32.784c0,0-19.806-1.39-19.772-0.264c0.034,1.126-18.064-7.318-19.867-10.554c-0.548-0.984,5.069-4.216,8.864-6.081  c4.73-2.324,11.379-4.129,13.938-5.088c2.561-0.96,16.754-8.304,15.228,3.176c-0.511,3.013,7.729,3.261,8.398,0.491  c0.552-2.282-1.473-5.145-0.477-5.957c2.174-1.771,5.942,0.156,5.942,0.156c7.765,1.992,29.158,13.597,27.782,19.668  c-0.513,2.263-15.294,3.897-16.628,4.089c-1.334,0.192-7.423-1.758-12.518-0.022S49.776,32.784,49.776,32.784z"/><path d="M73.181,36.833c0,0-25.178,6.74-42.766-1.373c-0.206-2.683-0.743-5.409,0-6.461c24.436,4.078,36.605,1.224,42.964,0  C73.394,32.927,73.181,36.833,73.181,36.833z"/><path d="M51.481,59.405c0,0-6.978,1.903-8.948,3.689c-0.622,0.563,1.289,2.932,1.289,2.932l1.708-1.501l5.951-2.355l0,0l5.65,2.355  l1.707,1.501c0,0,1.463-2.336,0.931-2.985C58.313,61.266,51.481,59.405,51.481,59.405z"/><path d="M48.373,67.495c1.127-0.765,5.386-0.86,6.313,0c0.562,1.256-1.762,4.594-3.156,4.601  C50.135,72.104,47.842,68.64,48.373,67.495z"/><path d="M35.438,59.633c0,0,7.156,12.046,11.026,13.882c2.296,1.089,7.945,1.219,10.176,0c3.543-1.937,10.305-12.902,10.305-12.902  S61.03,74.18,57.089,76.813c-2.266,1.514-8.515,1.32-10.897,0C41.759,74.358,35.438,59.633,35.438,59.633z"/><path d="M30.127,30.788l5.696,3.844c0,0-6.751,38.498-6.152,51.366c0.018,3.403-4.189,2.835-5.304,1.089  C23.254,85.341,30.127,30.788,30.127,30.788z"/><path d="M71.396,31.829l-0.01,4.252c0,0,7.521,29.945,9.632,39.003c0.215,2.607,4.373,1.938,5.365,0.539  C87.375,74.225,71.396,31.829,71.396,31.829z"/><path d="M30.767,34.352l1.054,7.111c0,0-8.079,25.644-9.219,35.12c-0.084,2.575-4.26,1.834-5.317,0.43  C16.227,75.609,30.767,34.352,30.767,34.352z"/><circle cx="68.197" cy="76.409" r="3.421"/><path d="M69.323,45.908c0,0.487-0.395,0.883-0.883,0.883h-0.883c-0.487,0-0.883-0.396-0.883-0.883v-0.883  c0-0.488,0.396-0.883,0.883-0.883h0.883c0.488,0,0.883,0.395,0.883,0.883V45.908z"/><path d="M69.108,49.518c0,0.294-0.238,0.532-0.532,0.532h-1.153c-0.295,0-0.532-0.238-0.532-0.532v-1.762  c0-0.294,0.237-0.532,0.532-0.532h1.153c0.294,0,0.532,0.238,0.532,0.532V49.518z"/><path d="M70.154,53.65c0,0.883-0.715,1.598-1.597,1.598h-1.116c-0.882,0-1.598-0.715-1.598-1.598v-1.509  c0-0.882,0.716-1.597,1.598-1.597h1.116c0.882,0,1.597,0.715,1.597,1.597V53.65z"/><path d="M70.263,56.902c0,0.587-0.476,1.062-1.063,1.062h-2.402c-0.586,0-1.062-0.475-1.062-1.062l0,0  c0-0.586,0.476-1.062,1.062-1.062H69.2C69.787,55.841,70.263,56.316,70.263,56.902L70.263,56.902z"/><path d="M69.753,71.799c0,0.429-0.348,0.776-0.776,0.776h-1.954c-0.429,0-0.776-0.348-0.776-0.776l0,0  c0-0.429,0.348-0.776,0.776-0.776h1.954C69.405,71.022,69.753,71.37,69.753,71.799L69.753,71.799z"/><path d="M69.419,69.155c0,0.784-0.636,1.42-1.42,1.42l0,0c-0.784,0-1.42-0.636-1.42-1.42v-1.864c0-0.784,0.636-1.42,1.42-1.42l0,0  c0.784,0,1.42,0.636,1.42,1.42V69.155z"/><path d="M69.064,64.985c0,0.196-0.159,0.354-0.355,0.354h-1.38c-0.196,0-0.355-0.158-0.355-0.354v-1.242  c0-0.196,0.159-0.355,0.355-0.355h1.38c0.196,0,0.355,0.159,0.355,0.355V64.985z"/><path d="M69.419,62.323c0,0.195-0.158,0.354-0.354,0.354h-2.035c-0.195,0-0.354-0.159-0.354-0.354v-3.569  c0-0.196,0.159-0.355,0.354-0.355h2.035c0.196,0,0.354,0.159,0.354,0.355V62.323z"/><path d="M70.085,42.779c0,0.196-0.159,0.354-0.354,0.354h-2.579c-0.196,0-0.354-0.158-0.354-0.354v-2.787  c0-0.196,0.158-0.354,0.354-0.354h2.579c0.195,0,0.354,0.158,0.354,0.354V42.779z"/><path d="M73.024,28.418l-5.695,3.845c0,0,6.75,38.498,6.151,51.366c-0.017,3.404,4.19,2.835,5.304,1.089  S73.024,28.418,73.024,28.418z"/><ellipse cx="48.479" cy="76.319" rx="1.132" ry="1.606"/><path d="M49.56,80.629c0,0.888-0.128,1.715-1.132,1.608c-0.622-0.066-1.4-0.425-1.133-1.608c0.196-0.866,0.507-1.607,1.133-1.607  C49.053,79.021,49.56,79.741,49.56,80.629z"/><path d="M49.457,78.146c0,1.009,0,1.817-1.029,1.827c-1.273,0.012-1.029-0.818-1.029-1.827s0.46-1.827,1.029-1.827  C48.996,76.318,49.457,77.137,49.457,78.146z"/><path d="M49.635,83.145c0,0.841-0.545,1.522-1.217,1.522s-1.038-0.732-1.217-1.522c-0.184-0.82,0.082-1.871,1.217-1.522  C49.635,81.995,49.635,82.304,49.635,83.145z"/><path d="M55.866,84.018c0.052,1.076-0.507,1.607-1.133,1.607c-0.625,0-1.132-0.72-1.132-1.607c0-1.346,0.507-1.606,1.132-1.606  C55.359,82.411,55.821,83.076,55.866,84.018z"/><path d="M55.764,85.625c0,0.755-0.479,1.228-1.03,1.366c-0.875,0.22-1.028-0.611-1.028-1.366c0-0.754,0.46-1.365,1.028-1.365  C55.303,84.26,55.764,84.871,55.764,85.625z"/><path d="M49.462,85.126c0,1.148-0.478,1.563-1.062,1.563s-1.054-0.415-1.054-1.563s0.549-0.866,1.133-0.866  S49.462,83.978,49.462,85.126z"/><path d="M55.866,81.554c-0.036,0.806-0.483,1.461-1.08,1.461c-1.185,0-1.081-0.654-1.081-1.461c0-0.809,0.483-1.463,1.081-1.463  C55.383,80.091,55.918,80.39,55.866,81.554z"/><ellipse cx="54.888" cy="76.161" rx="1.03" ry="1.365"/><path d="M55.814,77.842c-0.092,0.748-0.46,1.365-1.029,1.365c-0.568,0-0.846-0.635-1.028-1.365c-0.155-0.619,0.46-1.366,1.028-1.366  C55.354,76.476,55.918,77.003,55.814,77.842z"/><path d="M55.867,79.596c0,0.807-0.484,1.461-1.081,1.461s-1.081-0.654-1.081-1.461c0-0.808,0.056-1.944,1.081-1.462  C55.918,78.667,55.867,78.788,55.867,79.596z"/><ellipse cx="48.428" cy="91.111" rx="0.655" ry="1.525"/><ellipse cx="48.428" cy="87.573" rx="1.004" ry="1.281"/><path d="M49.432,89.585c0,0.139-0.112,0.25-0.25,0.25h-1.508c-0.139,0-0.25-0.111-0.25-0.25v-0.479c0-0.139,0.111-0.251,0.25-0.251  h1.508c0.138,0,0.25,0.112,0.25,0.251V89.585z"/><ellipse cx="54.734" cy="90.954" rx="0.655" ry="1.526"/><circle cx="54.734" cy="87.694" r="1.004"/><path d="M55.738,89.429c0,0.138-0.112,0.251-0.251,0.251H53.98c-0.139,0-0.251-0.113-0.251-0.251v-0.479  c0-0.14,0.112-0.251,0.251-0.251h1.507c0.139,0,0.251,0.111,0.251,0.251V89.429z"/><text x="0" y="115" fill="#000000" font-size="4px" font-weight="bold" font-family="'Helvetica Neue', Helvetica, Arial-Unicode, Arial, Sans-serif">Anne Caroline Bittencourt Gonçalves</text><text x="0" y="119" fill="#000000" font-size="4px" font-weight="bold" font-family="'Helvetica Neue', Helvetica, Arial-Unicode, Arial, Sans-serif">from the Noun Project</text></svg>